<?xml version="1.0" encoding="UTF-8"?>
<svg id="Layer_1" xmlns="http://www.w3.org/2000/svg" viewBox="0 0 1080 1080">
  <defs>
    <style>
      .cls-1 {
        fill: #fff;
      }
    </style>
  </defs>
  <path class="cls-1" d="M351.39,455.26c-33.03,0-64.06,25.31-64.06,64.06s31.03,64.06,64.06,64.06,64.05-25.01,64.05-64.06-31.03-64.06-64.05-64.06M351.39,578.9c-26.7,0-42.14-20.99-42.14-59.58s15.44-59.58,42.14-59.58,42.14,21.15,42.14,59.58-15.44,59.58-42.14,59.58"/>
  <path class="cls-1" d="M492.89,525.18c16.67-5.55,24.54-17.75,24.54-32.26,0-20.22-15.28-35.35-49.09-35.35h-38.12v123.48h19.45v-52.48h23.77l31.03,52.48h21.3l-32.88-55.88ZM469.43,524.57h-19.76v-63.13h18.22c20.53,0,28.55,14.82,28.55,31.33s-8.02,31.8-27.01,31.8"/>
  <polygon class="cls-1" points="713.66 457.58 676.16 568.69 638.17 457.58 615.05 457.58 626.77 491.58 601.66 568.32 563.67 457.58 540.55 457.58 583.38 581.06 602.44 581.06 629.42 499.01 657.88 581.06 677.1 581.06 718.45 457.58 713.66 457.58"/>
  <polygon class="cls-1" points="713.66 457.58 676.16 568.69 638.17 457.58 615.05 457.58 626.77 491.58 601.66 568.32 563.67 457.58 540.55 457.58 583.38 581.06 602.44 581.06 629.42 499.01 657.88 581.06 677.1 581.06 718.45 457.58 713.66 457.58"/>
  <rect class="cls-1" x="733.22" y="457.58" width="23.4" height="123.48"/>
  <rect class="cls-1" x="733.22" y="457.58" width="23.4" height="123.48"/>
  <polygon class="cls-1" points="874.34 457.58 874.34 564.23 798.54 457.58 771.41 457.58 771.41 581.06 777.35 581.06 777.35 472.07 858.98 581.06 880.29 581.06 880.29 457.58 874.34 457.58"/>
  <polygon class="cls-1" points="874.34 457.58 874.34 564.23 798.54 457.58 771.41 457.58 771.41 581.06 777.35 581.06 777.35 472.07 858.98 581.06 880.29 581.06 880.29 457.58 874.34 457.58"/>
  <path class="cls-1" d="M224.57,455.26v3.7h12.96c.2.63.4,1.25.6,1.87.35,1.1.71,2.21,1.06,3.32-.28,27.21-.43,49.63-.43,65.21,0,14.29.13,22.83.43,24.04,0,.02.03,1.61,0,3.8-.03,2.49-.06,4.69-.1,6.64-.15,6.08-.52,9.78-1.89,12.89-.67,1.53-3.46,7.59-10.19,10.54-4.87,2.13-9.39,1.59-11.4,1.21,1.38-.65,5.66-2.89,7.81-7.86.57-1.33,1.93-4.46.93-8.3-.2-.77-.99-3.64-3.64-5.81-4.74-3.88-11.04-1.91-11.94-1.61-1.56.51-5.57,2.15-7.73,6.37-2.87,5.63-.21,11.49,0,11.93,5.4,11.39,26.32,10.4,28.6,10.26,3.15-.19,10.02-.48,16.09-4.06,7.15-4.22,11.6-11.27,14.37-18.92,3.49-9.62,4.32-20.2,4.52-27.31v-79.02l1.21-5.19h9.51v-3.7h-50.77Z"/>
  <path class="cls-1" d="M260.09,570.48c-2.77,7.65-7.22,14.7-14.37,18.92-6.07,3.58-12.93,3.87-16.09,4.06-2.28.14-23.2,1.14-28.6-10.26-.21-.45-2.87-6.31,0-11.93,2.16-4.22,6.17-5.86,7.73-6.37.9-.3,7.2-2.27,11.94,1.61,2.65,2.17,3.44,5.04,3.64,5.81,1,3.84-.36,6.98-.93,8.3-2.15,4.96-6.43,7.2-7.81,7.86,2.01.38,6.54.92,11.4-1.21,6.74-2.95,9.52-9.01,10.19-10.54,1.37-3.11,1.74-6.81,1.89-12.89l21,6.64Z"/>
  <path class="cls-1" d="M260.09,570.48c-2.77,7.65-7.22,14.7-14.37,18.92-6.07,3.58-12.93,3.87-16.09,4.06-2.28.14-23.2,1.14-28.6-10.26-.21-.45-2.87-6.31,0-11.93,2.16-4.22,6.17-5.86,7.73-6.37.9-.3,7.2-2.27,11.94,1.61,2.65,2.17,3.44,5.04,3.64,5.81,1,3.84-.36,6.98-.93,8.3-2.15,4.96-6.43,7.2-7.81,7.86,2.01.38,6.54.92,11.4-1.21,6.74-2.95,9.52-9.01,10.19-10.54,1.37-3.11,1.74-6.81,1.89-12.89l21,6.64Z"/>
  <rect class="cls-1" x="224.56" y="455.26" width="12.95" height="3.7"/>
  <rect class="cls-1" x="224.56" y="455.26" width="12.95" height="3.7"/>
  <path class="cls-1" d="M332.02,619.16h-10.47l-1.93,5.34h-3.31l8.68-23.87h3.62l8.65,23.87h-3.31l-1.93-5.34ZM331.12,616.61l-4.34-12.13-4.34,12.13h8.68Z"/>
  <path class="cls-1" d="M355.32,601.95c1.92.98,3.39,2.37,4.41,4.19,1.02,1.82,1.53,3.95,1.53,6.41s-.51,4.59-1.53,6.39c-1.02,1.8-2.49,3.18-4.41,4.13-1.92.95-4.19,1.43-6.8,1.43h-7.48v-24.01h7.48c2.62,0,4.89.49,6.8,1.46M355.62,619.45c1.63-1.64,2.45-3.94,2.45-6.91s-.82-5.32-2.46-6.99c-1.64-1.68-4-2.51-7.08-2.51h-4.34v18.88h4.34c3.1,0,5.47-.82,7.1-2.46"/>
  <polygon class="cls-1" points="385.24 600.48 376.18 624.5 372.57 624.5 363.5 600.48 366.85 600.48 374.39 621.19 381.94 600.48 385.24 600.48"/>
  <rect class="cls-1" x="388.69" y="600.48" width="3.14" height="24.01"/>
  <path class="cls-1" d="M400.52,623.89c-1.25-.56-2.23-1.34-2.95-2.34-.71-1-1.08-2.15-1.1-3.46h3.34c.11,1.13.58,2.07,1.4,2.84.81.77,2,1.15,3.57,1.15s2.67-.37,3.53-1.12c.86-.75,1.29-1.7,1.29-2.88,0-.92-.25-1.66-.76-2.24-.5-.57-1.14-1.01-1.89-1.31-.76-.3-1.78-.62-3.07-.96-1.59-.41-2.85-.83-3.81-1.24-.95-.41-1.77-1.06-2.45-1.95-.68-.88-1.02-2.07-1.02-3.57,0-1.31.33-2.47,1-3.48.67-1.01,1.6-1.79,2.81-2.34,1.21-.55,2.59-.83,4.15-.83,2.25,0,4.09.56,5.53,1.69,1.44,1.13,2.24,2.62,2.43,4.48h-3.45c-.12-.92-.6-1.73-1.45-2.43-.85-.7-1.97-1.05-3.38-1.05-1.31,0-2.38.34-3.2,1.02-.83.68-1.24,1.63-1.24,2.84,0,.87.25,1.58.74,2.14.49.55,1.1.97,1.83,1.26.72.29,1.74.62,3.05.98,1.59.44,2.86.87,3.82,1.29.96.43,1.79,1.08,2.48,1.96.69.88,1.03,2.08,1.03,3.6,0,1.17-.31,2.27-.93,3.31-.62,1.03-1.54,1.87-2.76,2.52-1.22.64-2.65.96-4.31.96s-3-.28-4.25-.84"/>
  <path class="cls-1" d="M422.17,623.17c-1.84-1.04-3.29-2.5-4.36-4.38-1.07-1.87-1.6-3.98-1.6-6.32s.53-4.45,1.6-6.32c1.07-1.87,2.52-3.33,4.36-4.38,1.84-1.04,3.87-1.57,6.1-1.57s4.3.52,6.13,1.57c1.84,1.05,3.28,2.5,4.34,4.36,1.06,1.86,1.59,3.97,1.59,6.34s-.53,4.48-1.59,6.34c-1.06,1.86-2.5,3.31-4.34,4.36-1.84,1.05-3.88,1.57-6.13,1.57s-4.26-.52-6.1-1.57M432.8,620.84c1.34-.78,2.4-1.89,3.17-3.34.77-1.45,1.15-3.12,1.15-5.03s-.39-3.61-1.15-5.05c-.77-1.44-1.82-2.54-3.15-3.32-1.33-.78-2.85-1.17-4.55-1.17s-3.22.39-4.55,1.17c-1.33.78-2.38,1.89-3.15,3.32-.77,1.44-1.15,3.12-1.15,5.05s.38,3.58,1.15,5.03c.77,1.45,1.83,2.56,3.17,3.34,1.34.78,2.85,1.17,4.53,1.17s3.19-.39,4.53-1.17"/>
  <path class="cls-1" d="M457.11,624.5l-5.72-9.82h-3.79v9.82h-3.14v-24.01h7.75c1.81,0,3.35.31,4.6.93,1.25.62,2.19,1.46,2.81,2.51.62,1.06.93,2.26.93,3.62,0,1.65-.48,3.11-1.43,4.38-.95,1.26-2.38,2.1-4.29,2.51l6.03,10.06h-3.76ZM447.6,612.16h4.62c1.7,0,2.97-.42,3.82-1.26.85-.84,1.27-1.96,1.27-3.36s-.42-2.53-1.26-3.31c-.84-.78-2.12-1.17-3.84-1.17h-4.62v9.09Z"/>
  <path class="cls-1" d="M468.77,623.89c-1.25-.56-2.23-1.34-2.95-2.34-.71-1-1.08-2.15-1.1-3.46h3.34c.11,1.13.58,2.07,1.4,2.84.81.77,2,1.15,3.57,1.15s2.67-.37,3.53-1.12c.86-.75,1.29-1.7,1.29-2.88,0-.92-.25-1.66-.76-2.24-.5-.57-1.14-1.01-1.89-1.31-.76-.3-1.78-.62-3.07-.96-1.59-.41-2.85-.83-3.81-1.24-.95-.41-1.77-1.06-2.45-1.95-.68-.88-1.02-2.07-1.02-3.57,0-1.31.33-2.47,1-3.48.67-1.01,1.6-1.79,2.81-2.34,1.21-.55,2.59-.83,4.15-.83,2.25,0,4.09.56,5.53,1.69,1.44,1.13,2.24,2.62,2.43,4.48h-3.45c-.12-.92-.6-1.73-1.45-2.43-.85-.7-1.97-1.05-3.38-1.05-1.31,0-2.38.34-3.2,1.02-.83.68-1.24,1.63-1.24,2.84,0,.87.25,1.58.74,2.14.49.55,1.1.97,1.83,1.26.72.29,1.74.62,3.05.98,1.59.44,2.86.87,3.82,1.29.96.43,1.79,1.08,2.48,1.96.69.88,1.03,2.08,1.03,3.6,0,1.17-.31,2.27-.93,3.31-.62,1.03-1.54,1.87-2.76,2.52-1.22.64-2.65.96-4.31.96s-3-.28-4.25-.84"/>
  <path class="cls-1" d="M523.75,613c-1.34,1.29-3.37,1.94-6.11,1.94h-4.51v9.8h-3.07v-23.48h7.58c2.65,0,4.66.64,6.05,1.92,1.38,1.28,2.07,2.93,2.07,4.95s-.67,3.58-2.01,4.87M521.41,611.3c.81-.74,1.21-1.8,1.21-3.17,0-2.9-1.66-4.35-4.98-4.35h-4.51v8.62h4.51c1.71,0,2.96-.37,3.77-1.11"/>
  <path class="cls-1" d="M541.93,624.74l-5.59-9.6h-3.7v9.6h-3.07v-23.48h7.58c1.77,0,3.27.3,4.5.91,1.22.61,2.14,1.43,2.75,2.46.61,1.03.91,2.21.91,3.54,0,1.62-.47,3.04-1.4,4.28-.93,1.24-2.33,2.05-4.19,2.46l5.89,9.84h-3.67ZM532.63,612.68h4.51c1.66,0,2.91-.41,3.74-1.23.83-.82,1.25-1.91,1.25-3.28s-.41-2.47-1.23-3.23c-.82-.76-2.07-1.15-3.76-1.15h-4.51v8.89Z"/>
  <rect class="cls-1" x="550.04" y="601.26" width="3.07" height="23.48"/>
  <polygon class="cls-1" points="577.73 601.26 568.87 624.74 565.33 624.74 556.48 601.26 559.74 601.26 567.12 621.5 574.5 601.26 577.73 601.26"/>
  <path class="cls-1" d="M594.98,619.52h-10.24l-1.89,5.22h-3.23l8.49-23.34h3.54l8.45,23.34h-3.23l-1.89-5.22ZM594.1,617.02l-4.24-11.86-4.24,11.86h8.49Z"/>
  <polygon class="cls-1" points="618.25 601.26 618.25 603.75 611.85 603.75 611.85 624.74 608.79 624.74 608.79 603.75 602.35 603.75 602.35 601.26 618.25 601.26"/>
  <polygon class="cls-1" points="625.09 603.75 625.09 611.6 633.64 611.6 633.64 614.13 625.09 614.13 625.09 622.21 634.65 622.21 634.65 624.74 622.02 624.74 622.02 601.23 634.65 601.23 634.65 603.75 625.09 603.75"/>
  <polygon class="cls-1" points="651.36 622.25 659.58 622.25 659.58 624.74 648.3 624.74 648.3 601.26 651.36 601.26 651.36 622.25"/>
  <rect class="cls-1" x="662.85" y="601.26" width="3.06" height="23.48"/>
  <polygon class="cls-1" points="694.95 601.43 694.95 624.74 691.88 624.74 691.88 607.36 684.13 624.74 681.98 624.74 674.2 607.32 674.2 624.74 671.13 624.74 671.13 601.43 674.43 601.43 683.06 620.7 691.68 601.43 694.95 601.43"/>
  <rect class="cls-1" x="700.13" y="601.26" width="3.06" height="23.48"/>
  <polygon class="cls-1" points="722.87 601.26 722.87 603.75 716.47 603.75 716.47 624.74 713.4 624.74 713.4 603.75 706.97 603.75 706.97 601.26 722.87 601.26"/>
  <polygon class="cls-1" points="729.71 603.75 729.71 611.6 738.26 611.6 738.26 614.13 729.71 614.13 729.71 622.21 739.27 622.21 739.27 624.74 726.64 624.74 726.64 601.23 739.27 601.23 739.27 603.75 729.71 603.75"/>
  <path class="cls-1" d="M757.88,602.69c1.88.95,3.31,2.32,4.31,4.09,1,1.77,1.5,3.86,1.5,6.27s-.5,4.49-1.5,6.25c-1,1.76-2.44,3.11-4.31,4.04-1.88.93-4.09,1.4-6.65,1.4h-7.31v-23.48h7.31c2.56,0,4.78.48,6.65,1.43M758.17,619.8c1.59-1.61,2.39-3.86,2.39-6.75s-.8-5.2-2.41-6.84c-1.6-1.64-3.91-2.46-6.92-2.46h-4.24v18.46h4.24c3.03,0,5.34-.8,6.94-2.41"/>
</svg>